<svg width="53" height="68" viewBox="0 0 53 68" fill="none" xmlns="http://www.w3.org/2000/svg">
<path d="M24.3718 0V18.4647C23.13 17.96 20.4502 17.8984 19.1298 17.8984C9.19576 17.8984 0 22.5735 0 35.7968C0 51.619 12.4552 53.6952 20.7932 53.6952C24.0855 53.6952 31.5288 53.37 35.1073 52.3319V0H24.3718ZM42.2644 0V10.739H53V0H42.2644ZM42.2644 17.8984V49.0459C42.2644 54.4727 38.965 60.1214 31.5288 63.3646L41.7612 68C52.1604 64.4203 53 52.6255 53 49.0459V17.8984H42.2644ZM20.6884 27.0294C21.8335 27.0294 23.1193 27.2394 24.3718 27.5258V44.3615C23.1193 44.6479 21.8335 44.8649 20.6884 44.8649C16.0005 44.8649 11.4555 43.3858 11.4555 35.7968C11.4555 28.2079 16.0005 27.0294 20.6884 27.0294Z" fill="white"/>
</svg>
