<?xml version="1.0" standalone="no"?>
<!DOCTYPE svg PUBLIC "-//W3C//DTD SVG 20010904//EN"
 "http://www.w3.org/TR/2001/REC-SVG-20010904/DTD/svg10.dtd">
<svg version="1.0" xmlns="http://www.w3.org/2000/svg"
 width="128.000000pt" height="128.000000pt" viewBox="0 0 128.000000 128.000000"
 preserveAspectRatio="xMidYMid meet">

<g transform="translate(0.000000,128.000000) scale(0.100000,-0.100000)"
fill="#000000" stroke="none">
<path d="M72 1260 c-18 -11 -41 -34 -52 -52 -19 -32 -20 -52 -20 -568 0 -516
1 -536 20 -568 11 -18 34 -41 52 -52 32 -19 52 -20 568 -20 516 0 536 1 568
20 18 11 41 34 52 52 19 32 20 52 20 568 0 516 -1 536 -20 568 -11 18 -34 41
-52 52 -32 19 -52 20 -568 20 -516 0 -536 -1 -568 -20z m328 -300 c15 -11 39
-20 52 -20 44 0 130 -50 188 -109 41 -42 69 -84 99 -147 56 -121 52 -115 105
-143 58 -32 128 -90 121 -101 -2 -4 -25 -11 -50 -14 -52 -8 -57 -19 -17 -40
15 -8 43 -31 62 -52 l35 -37 -40 23 c-94 54 -106 63 -116 82 -14 27 -3 37 52
46 l44 8 -45 30 c-25 17 -61 36 -81 43 -32 10 -40 21 -87 120 -77 161 -165
246 -275 265 -21 4 -53 16 -70 27 -61 37 -87 17 -46 -35 11 -14 31 -54 45 -88
13 -33 31 -69 40 -79 13 -15 14 -24 5 -50 -18 -53 -14 -133 9 -160 l19 -24 1
27 c0 30 19 78 31 78 4 0 10 -8 13 -18 4 -10 22 -44 40 -75 41 -68 29 -76 -17
-11 -30 43 -32 45 -35 21 -7 -58 -50 -57 -78 1 -13 29 -16 52 -11 119 3 46 2
85 -3 88 -5 3 -19 32 -31 65 -12 33 -32 74 -45 92 -59 79 2 128 86 68z m57
-105 c9 -25 -4 -29 -17 -6 -7 15 -7 21 0 21 6 0 13 -7 17 -15z"/>
</g>
</svg>
