<svg width="60" height="60" viewBox="0 0 60 60" fill="none" xmlns="http://www.w3.org/2000/svg">
<path d="M33 0.00896022C21.8438 0.00896022 18.9492 8.4912 17.9766 13.4118C19.3125 12.8378 22.6055 12.0059 24 12.0059H24.0586C27.4922 12.0294 28.5586 13.0018 29.25 16.1768C29.7539 18.5082 30.0117 22.1401 30 24.0029C29.9883 28.08 29.0039 30.8918 28.2773 32.778L28.043 33.3873C27.8672 33.891 27.6562 34.3597 27.4688 34.7932C27.2812 35.2501 27.1172 35.6484 27 35.9999C27.7266 36.1639 28.3008 36.3982 28.6875 36.5622L28.9102 36.6677C28.9805 36.7028 29.0508 36.7263 29.1094 36.7731C30.3867 37.5464 30 39.3272 30 40.7331C30 41.9047 30.0352 46.5675 30 51.0078C30.1289 52.9292 30.6211 54.546 31.043 55.7293C31.6641 57.3929 33.0586 59.865 36 59.9938C38.3203 60.0993 41.6719 58.8808 42 54.0071V42.0101C42.2227 38.0033 46.8164 36.4099 48 35.5313C47.8359 35.3087 47.2031 33.3521 46.5352 32.3094L46.4062 32.0634C46.3125 31.8291 46.0664 31.4073 45.7617 30.8449C43.9922 27.6348 40.2891 19.3986 42.8203 15.1809C43.9219 13.3298 45 12.2637 48 12.0059C46.7812 8.52634 43.4062 0.184698 33 0.00896022ZM13.3125 0.00896022C7.69922 0.219846 0 3.69944 0 15.0403C0 22.7259 5.22656 44.9976 13.4766 44.9976C13.8516 44.9976 14.2266 44.8687 14.6133 44.6696C13.8867 44.0369 13.3594 43.2168 13.2891 42.139C13.1602 39.9598 14.7422 38.4251 18.1523 37.5581C18.3164 37.5347 19.1836 37.2769 21.0938 36.1991C20.0859 35.7656 19.0313 35.1798 18.1641 34.2777C15.7852 31.7939 14.5781 28.3143 15.0234 25.1862C15.4453 22.1401 15.1992 19.1526 15.0703 17.5592L15.0586 17.4069L15.0234 16.8797L14.9531 15.7784L15.0469 12.826C16.0195 7.83511 18.0586 3.9689 21 1.2977C18.7734 0.571318 15.9727 -0.0847662 13.3125 0.00896022ZM44.8008 0.0206753C44.2266 0.0323933 43.6875 0.0792565 43.1602 0.137835C46.1719 2.23496 48.9375 5.62083 50.8242 11.0218L50.9531 15.1458C50.9648 15.2864 50.9883 15.4269 51.0117 15.5675C51.1055 16.083 51.2227 16.786 51.1289 17.6295C51.0117 18.5902 50.8945 19.5743 50.8594 20.5585C50.8359 21.5309 50.9648 22.4799 51.1055 23.4874C51.3633 25.2799 51.2227 27.0959 50.6602 29.0407L49.7812 32.0634C50.0156 32.5789 50.2383 33.1061 50.4609 33.6567C50.5078 33.7973 50.5547 33.9028 50.5898 33.9965L51.5742 35.3555C56.8711 30.6926 60 20.9334 60 10.8812C60 8.9364 59.4727 7.43678 58.793 6.56981C54.7734 1.42657 49.207 -0.049618 44.8008 0.0206753ZM24 15.0052C23.1562 15.0052 20.25 15.6964 19.1484 16.165L18.0703 16.622C18.0469 16.6454 18.0234 16.6688 18.0117 16.6923C18.0234 16.8563 18.0469 17.0554 18.0703 17.3015C18.1992 19.0237 18.457 22.2221 17.9883 25.608C17.6719 27.834 18.5742 30.3646 20.3438 32.204C21.3516 33.2584 23.1562 33.9496 24.4688 34.2425C24.5508 34.0316 24.6211 33.8559 24.7148 33.6216C24.8789 33.2232 25.0664 32.8015 25.2422 32.3328L25.4766 31.7002C26.0039 30.3294 26.9883 27.7637 27 23.9912C27.0117 22.7493 26.8711 20.4882 26.6133 18.5551C26.5781 18.6019 26.5547 18.6019 26.5312 18.6605C26.0859 19.1057 25.3945 19.504 24.6328 19.3869C23.3906 19.1877 22.4414 17.6764 22.5 17.114C22.5703 16.5634 23.6367 16.2705 24.8789 16.4697C25.3008 16.5399 25.6992 16.6688 26.0273 16.8094C26.1445 16.9031 26.2383 16.9617 26.3438 17.032C26.332 16.9617 26.332 16.8797 26.3086 16.8094C26.0273 15.4855 25.793 15.2395 25.7812 15.2278C25.7695 15.2161 25.4531 15.0169 24 15.0052ZM47.9531 15.0403C46.5 15.2161 46.0898 15.6027 45.5625 16.4579C46.582 16.4579 47.3203 16.7977 47.4023 17.4304C47.4844 17.9693 47.0273 18.4848 46.8281 18.6839C46.4062 19.0823 45.8789 19.3517 45.3516 19.4103C45.2578 19.4338 45.1641 19.4338 45.0586 19.4338C45.0352 19.4338 45.0234 19.422 45 19.422C45.1758 21.8941 46.2891 25.2331 47.7773 28.2089C48.1875 26.7796 48.3516 25.3854 48.1406 23.9092C47.9883 22.8196 47.8242 21.6949 47.8594 20.4647C47.9062 19.3517 48.0234 18.309 48.1406 17.2898C48.2344 16.5048 47.9297 15.7784 47.9531 15.0403ZM54.5391 37.5932C54.3047 37.5581 53.9766 37.5815 53.5781 37.6635C51.6914 38.0502 50.4375 38.1556 49.5117 38.097C49.1836 38.3196 48.8438 38.5305 48.4219 38.7648C46.7344 39.6904 45.2344 40.6511 45.0352 41.9984V43.744C47.0156 43.8378 49.6641 42.6076 51.1875 41.9047C54.0586 40.5808 56.2148 37.8158 54.5391 37.5932ZM23.5078 38.2845C21.8555 39.2686 19.9922 40.241 18.75 40.4988C14.3438 41.6703 17.0742 43.0411 18.6328 43.1934C20.2969 43.6034 24.375 44.529 27 42.385C27 42.385 27 42.385 27 42.3733V40.7331C27 40.4167 27.0117 40.1004 27.0352 39.7607C27.0352 39.5849 27.0469 39.3506 27.0469 39.1397C26.8477 39.0577 26.6016 38.9874 26.332 38.9171L23.5078 38.2845Z" fill="white"/>
</svg>
