<?xml version="1.0" standalone="no"?>
<!DOCTYPE svg PUBLIC "-//W3C//DTD SVG 20010904//EN"
 "http://www.w3.org/TR/2001/REC-SVG-20010904/DTD/svg10.dtd">
<svg version="1.0" xmlns="http://www.w3.org/2000/svg"
 width="512.000000pt" height="512.000000pt" viewBox="0 0 512.000000 512.000000"
 preserveAspectRatio="xMidYMid meet">

<g transform="translate(0.000000,512.000000) scale(0.100000,-0.100000)"
fill="#000000" stroke="none">
<path d="M0 2560 l0 -2560 2560 0 2560 0 0 2560 0 2560 -2560 0 -2560 0 0
-2560z m4115 204 c143 -28 290 -124 389 -252 80 -106 90 -85 -109 -218 -96
-63 -180 -114 -186 -112 -6 2 -34 32 -62 67 -69 84 -123 113 -227 119 -68 4
-85 1 -132 -20 -110 -51 -147 -166 -90 -279 36 -72 96 -111 332 -218 357 -162
497 -258 589 -406 106 -168 120 -463 33 -649 -79 -167 -238 -287 -463 -348
-75 -20 -105 -23 -274 -22 -160 1 -202 4 -267 22 -173 47 -334 135 -433 237
-48 49 -155 197 -155 214 0 4 86 57 192 118 l191 111 42 -57 c123 -167 268
-239 458 -228 74 4 98 10 154 38 40 20 79 49 97 72 27 33 31 48 34 111 3 59 0
81 -17 113 -38 75 -92 110 -357 229 -102 46 -218 102 -260 124 -157 87 -269
199 -333 334 -43 89 -53 145 -54 291 0 106 4 142 21 195 78 238 304 409 567
429 109 8 236 2 320 -15z m-1195 -146 c0 -79 3 -173 7 -210 l6 -68 -337 0
-336 0 0 -945 0 -945 -235 0 -235 0 0 945 0 945 -335 0 -335 0 0 194 c0 107 3
201 6 210 6 14 94 16 900 16 l894 0 0 -142z"/>
</g>
</svg>
